<?xml version="1.0" encoding="utf-8"?>
<!-- Generator: Adobe Illustrator 27.2.0, SVG Export Plug-In . SVG Version: 6.00 Build 0)  -->
<svg version="1.1" id="Layer_1" xmlns="http://www.w3.org/2000/svg" xmlns:xlink="http://www.w3.org/1999/xlink" x="0px" y="0px"
	 viewBox="0 0 108.2 203.7" style="enable-background:new 0 0 108.2 203.7;" xml:space="preserve">
<style type="text/css">
	.st0{display:none;fill:#F20000;}
	.st1{fill:#F3F3F3;}
	.st2{fill-rule:evenodd;clip-rule:evenodd;fill:#414141;}
	.st3{fill:#FFFFFF;fill-opacity:0.95;}
</style>
<g>
	<path class="st0" d="M8,0h92.2c4.4,0,8,3.6,8,8v187.7c0,4.4-3.6,8-8,8H8c-4.4,0-8-3.6-8-8V8C0,3.6,3.6,0,8,0z"/>
</g>
<path class="st1" d="M8,0h92.2c4.4,0,8,3.6,8,8v187.7c0,4.4-3.6,8-8,8H8c-4.4,0-8-3.6-8-8V8C0,3.6,3.6,0,8,0z"/>
<path class="st2" d="M51.1,13.9H15.4c-1.1,0-2,0.9-2,2v55h37.7V13.9z M57.1,70.9h37.7v-55c0-1.1-0.9-2-2-2H57.1V70.9z M94.8,77H13.4
	v23h81.4V77z M94.8,106.1H13.4v25.5h81.4V106.1z M94.8,137.6H57.1v54.5h35.7c1.1,0,2-0.9,2-2V137.6z M96.9,198.2c2.2,0,4-1.8,4-4
	V11.9c0-2.2-1.8-4-4-4H11.3c-2.2,0-4,1.8-4,4v182.3c0,2.2,1.8,4,4,4H96.9z M13.4,190.1c0,1.1,0.9,2,2,2h35.7v-54.5H13.4V190.1z"/>
<path class="st3" d="M18.6,15.8h71c2.2,0,4,1.8,4,4v166.6c0,2.2-1.8,4-4,4h-71c-2.2,0-4-1.8-4-4V19.8C14.6,17.5,16.4,15.8,18.6,15.8
	z"/>
</svg>
