<svg width="40" height="75" viewBox="0 0 40 75" fill="none" xmlns="http://www.w3.org/2000/svg">
<path fill-rule="evenodd" clip-rule="evenodd" d="M19.2903 1.13801H3.25806C2.70578 1.13801 2.25806 1.58572 2.25806 2.13801L2.25806 24.6923H19.2903V1.13801ZM20.7097 24.6923H37.7419V2.13801C37.7419 1.58572 37.2942 1.13801 36.7419 1.13801H20.7097V24.6923ZM37.7419 25.9656H2.25806L2.25806 36.0533H37.7419V25.9656ZM37.7419 38.4201H2.25806V49.4139H37.7419V38.4201ZM37.7419 50.7278H20.7097V72.8621H36.7419C37.2942 72.8621 37.7419 72.4144 37.7419 71.8621V50.7278ZM38.0337 74.3965C38.586 74.3965 39.0337 73.9487 39.0337 73.3965V1.07692C39.0337 0.524637 38.586 0.0769234 38.0337 0.0769234H1.96631C1.41402 0.0769234 0.966309 0.524639 0.966309 1.07692V73.3965C0.966309 73.9487 1.41402 74.3965 1.96631 74.3965H38.0337ZM2.25806 71.8621C2.25806 72.4144 2.70577 72.8621 3.25805 72.8621H19.2903V50.7278H2.25806L2.25806 61.3787L2.25806 71.8621Z" fill="#393939"/>
</svg>
